<?xml version="1.0" encoding="utf-8"?>
<!-- Generator: Adobe Illustrator 23.1.0, SVG Export Plug-In . SVG Version: 6.00 Build 0)  -->
<svg version="1.1" id="Capa_1" xmlns="http://www.w3.org/2000/svg" xmlns:xlink="http://www.w3.org/1999/xlink" x="0px" y="0px"
	 viewBox="0 0 2070.7 220.4" style="enable-background:new 0 0 2070.7 220.4;" xml:space="preserve">
<style type="text/css">
	.st0{fill:#D40317;}
	.st1{fill:none;stroke:#FFFFFF;stroke-width:2;}
	.st2{fill:#FFFFFF;}
</style>
<title>dc</title>
<rect x="0" class="st0" width="2070.7" height="220.4"/>
<g>
	<g id="layer2">
		<path id="path4142" class="st1" d="M883.4,49h304v123h-304V49z"/>
	</g>
	<g id="g2505">
		<path id="path2509" class="st2" d="M1145.8,58.6h17.2v84.2h14.6v21.3h-31.8V58.6z"/>
		<path id="path2515" class="st2" d="M1027.3,108.8c12.3-0.8,11.2-16.6,11.2-16.6c-1.9-15.5-11.2-14.7-11.2-14.7V108.8z
			 M987.6,133.2l-5.2-32.1l-4.5,32.1H987.6z M892.9,163.7V58.6h23.2l8.2,44.1l9.4-44h22.4v94.7l14.6-94.7h22.8l14.2,94.7V59h30.3
			c0,0,10.5,1.9,15.7,17l-2.2-17.4h18.3l8.6,54.5l9-54.1h51.6v19.7h-15.4v21.6h14.6v22h-14.2v20.1h15v21.3h-33.3V62.5l-17.2,101.2
			H1068l-10.8-67.2c0,0-1.9,18.5-12,27l13.1,40.2h-18l-12.7-35.2v35.2h-36.2l-1.9-10.1h-13.8l-3,10.1h-34.4v-38.6l-9,38.6h-9.4
			l-8.2-38.3v37.9L892.9,163.7z"/>
	</g>
</g>
</svg>
